<svg width="40" height="40" viewBox="0 0 40 40" fill="none" xmlns="http://www.w3.org/2000/svg">
<path d="M5.8335 15V23.3333C5.8335 29.6187 5.8335 32.7615 7.78611 34.714C9.73875 36.6667 12.8814 36.6667 19.1668 36.6667H20.8335C27.1188 36.6667 30.2617 36.6667 32.2142 34.714C34.1668 32.7615 34.1668 29.6187 34.1668 23.3333V16.6667C34.1668 10.3813 34.1668 7.23858 32.2142 5.28594C30.2617 3.33333 27.1188 3.33333 20.8335 3.33333H20.0002" stroke="#4F46E5" stroke-width="2.5" stroke-linecap="round" stroke-linejoin="round"/>
<path d="M22.5 28.3333H29.1667" stroke="#4F46E5" stroke-width="2.5" stroke-linecap="round" stroke-linejoin="round"/>
<path d="M22.5 11.6667H29.1667" stroke="#4F46E5" stroke-width="2.5" stroke-linecap="round" stroke-linejoin="round"/>
<path d="M22.5 20H29.1667" stroke="#4F46E5" stroke-width="2.5" stroke-linecap="round" stroke-linejoin="round"/>
<path d="M10.8335 27.5C10.8335 27.5 12.4461 27.9453 13.3335 30C13.3335 30 15.0002 25 18.3335 23.3333" stroke="#4F46E5" stroke-width="2.5" stroke-linecap="round" stroke-linejoin="round"/>
<path d="M16.6668 8.33333H5.8335M16.6668 8.33333C16.6668 6.93288 12.789 4.31639 11.8057 3.33333M16.6668 8.33333C16.6668 9.73378 12.789 12.3503 11.8057 13.3333" stroke="#4F46E5" stroke-width="2.5" stroke-linecap="round" stroke-linejoin="round"/>
</svg>
