<svg width="25" height="25" viewBox="0 0 25 25" fill="none" xmlns="http://www.w3.org/2000/svg">
<path d="M20 6.33337L19.3803 16.3585C19.2219 18.9198 19.1428 20.2005 18.5008 21.1213C18.1833 21.5765 17.7747 21.9607 17.3007 22.2494C16.3421 22.8334 15.059 22.8334 12.4927 22.8334C9.92312 22.8334 8.6383 22.8334 7.67905 22.2483C7.2048 21.9591 6.796 21.5742 6.47868 21.1182C5.83688 20.196 5.75945 18.9135 5.60461 16.3486L5 6.33337" stroke="#FF0000" stroke-width="1.5" stroke-linecap="round"/>
<path d="M9.5 12.5682H15.5" stroke="#FF0000" stroke-width="1.5" stroke-linecap="round"/>
<path d="M11 16.4877H14" stroke="#FF0000" stroke-width="1.5" stroke-linecap="round"/>
<path d="M3.5 6.33337H21.5M16.5555 6.33337L15.8729 4.9251C15.4194 3.98963 15.1926 3.52189 14.8015 3.23018C14.7148 3.16547 14.6229 3.10791 14.5268 3.05807C14.0937 2.83337 13.5739 2.83337 12.5343 2.83337C11.4686 2.83337 10.9358 2.83337 10.4955 3.06749C10.3979 3.11938 10.3048 3.17927 10.2171 3.24654C9.82145 3.55007 9.60044 4.03492 9.15842 5.00463L8.55273 6.33337" stroke="#FF0000" stroke-width="1.5" stroke-linecap="round"/>
</svg>
