<svg width="105" height="30" viewBox="0 0 105 30" fill="none" xmlns="http://www.w3.org/2000/svg">
<path d="M15.0497 0C12.0732 0 9.16348 0.875752 6.68857 2.51652C4.21367 4.15728 2.28467 6.48935 1.1456 9.21785C0.00652022 11.9463 -0.291513 14.9487 0.289182 17.8452C0.869882 20.7419 2.30324 23.4024 4.40797 25.4906C6.51271 27.5789 9.19436 29.0011 12.1137 29.5774C15.0331 30.1535 18.0591 29.8578 20.8091 28.7278C23.5591 27.5974 25.9093 25.6835 27.5632 23.228C29.2169 20.7724 30.0995 17.8854 30.0995 14.9321C30.0995 10.9719 28.514 7.17382 25.6915 4.37352C22.8691 1.5732 19.0412 0 15.0497 0ZM24.2945 17.1143C24.2945 17.413 22.9357 17.4556 22.9357 17.7543C22.9357 18.0529 24.2796 18.4582 24.2796 18.87C24.2796 19.3733 21.5103 19.448 21.5103 19.9515C21.5103 20.4891 23.6108 20.3226 23.6108 20.905C23.6108 21.5919 18.3349 21.2719 18.3349 21.9865C18.3349 22.2594 19.01 22.3726 19.855 22.4622C20.3194 22.5133 20.2182 22.7394 19.9539 22.8889C18.4768 23.783 16.78 24.2561 15.0497 24.2561C13.3195 24.2561 11.6227 23.783 10.1457 22.8889C9.88337 22.7289 9.78018 22.5028 10.2446 22.4622C11.0895 22.3726 11.7668 22.2489 11.7668 21.9865C11.7668 21.2719 6.48858 21.5919 6.48858 20.905C6.48858 20.3226 8.59127 20.4783 8.59127 19.9515C8.59127 19.448 5.81998 19.3733 5.81998 18.87C5.81998 18.4582 7.16587 18.0593 7.16587 17.7543C7.16587 17.4492 5.80492 17.4151 5.80492 17.1143C5.80492 16.8136 6.79822 16.6194 6.79822 16.4061C6.79822 16.003 5.64366 16.7368 5.64366 14.9321C5.64366 12.457 6.6347 10.0832 8.39867 8.333C10.1627 6.5828 12.5551 5.59954 15.0497 5.59954C17.5444 5.59954 19.9369 6.5828 21.7009 8.333C23.4649 10.0832 24.4558 12.457 24.4558 14.9321C24.4558 16.7368 23.3014 15.9987 23.3014 16.4061C23.3014 16.6194 24.2945 16.7922 24.2945 17.1143Z" fill="#4F46E5"/>
<path d="M30.606 20.9321L34.204 10.5021H36.668L40.266 20.9321H38.194L37.452 18.6921H33.42L32.664 20.9321H30.606ZM33.966 17.0121H36.906L35.17 11.8181H35.702L33.966 17.0121ZM41.4268 20.9321V10.5021H43.3308V20.9321H41.4268ZM44.483 20.9321L47.899 15.6821L44.511 10.5021H46.695L49.467 14.7441H48.459L51.217 10.5021H53.401L50.027 15.6821L53.429 20.9321H51.245L48.459 16.6341H49.467L46.667 20.9321H44.483ZM60.8051 21.1001C60.1425 21.1001 59.5265 20.9788 58.9571 20.7361C58.3971 20.4935 57.9118 20.1575 57.5011 19.7281C57.0998 19.2895 56.8058 18.7808 56.6191 18.2021L58.2011 17.5161C58.4531 18.1135 58.8171 18.5848 59.2931 18.9301C59.7691 19.2661 60.3058 19.4341 60.9031 19.4341C61.2391 19.4341 61.5285 19.3828 61.7711 19.2801C62.0231 19.1681 62.2145 19.0188 62.3451 18.8321C62.4851 18.6455 62.5551 18.4215 62.5551 18.1601C62.5551 17.8521 62.4618 17.6001 62.2751 17.4041C62.0978 17.1988 61.8271 17.0401 61.4631 16.9281L59.4611 16.2841C58.6491 16.0321 58.0378 15.6541 57.6271 15.1501C57.2165 14.6461 57.0111 14.0535 57.0111 13.3721C57.0111 12.7748 57.1558 12.2475 57.4451 11.7901C57.7438 11.3328 58.1545 10.9781 58.6771 10.7261C59.2091 10.4648 59.8158 10.3341 60.4971 10.3341C61.1225 10.3341 61.6965 10.4461 62.2191 10.6701C62.7418 10.8848 63.1898 11.1881 63.5631 11.5801C63.9458 11.9628 64.2305 12.4155 64.4171 12.9381L62.8491 13.6381C62.6438 13.1155 62.3358 12.7141 61.9251 12.4341C61.5145 12.1448 61.0385 12.0001 60.4971 12.0001C60.1798 12.0001 59.8998 12.0561 59.6571 12.1681C59.4145 12.2708 59.2231 12.4201 59.0831 12.6161C58.9525 12.8028 58.8871 13.0268 58.8871 13.2881C58.8871 13.5775 58.9805 13.8341 59.1671 14.0581C59.3538 14.2728 59.6385 14.4408 60.0211 14.5621L61.9391 15.1641C62.7698 15.4348 63.3905 15.8081 63.8011 16.2841C64.2211 16.7601 64.4311 17.3481 64.4311 18.0481C64.4311 18.6455 64.2771 19.1728 63.9691 19.6301C63.6611 20.0875 63.2365 20.4468 62.6951 20.7081C62.1538 20.9695 61.5238 21.1001 60.8051 21.1001ZM69.6596 21.1001C68.9036 21.1001 68.2222 20.9275 67.6156 20.5821C67.0182 20.2275 66.5469 19.7515 66.2016 19.1541C65.8562 18.5475 65.6836 17.8661 65.6836 17.1101C65.6836 16.3541 65.8562 15.6775 66.2016 15.0801C66.5469 14.4828 67.0182 14.0115 67.6156 13.6661C68.2222 13.3208 68.9036 13.1481 69.6596 13.1481C70.2009 13.1481 70.7049 13.2461 71.1716 13.4421C71.6382 13.6288 72.0396 13.8901 72.3756 14.2261C72.7209 14.5528 72.9682 14.9448 73.1176 15.4021L71.5076 16.1021C71.3676 15.7195 71.1296 15.4115 70.7936 15.1781C70.4669 14.9448 70.0889 14.8281 69.6596 14.8281C69.2582 14.8281 68.8989 14.9261 68.5816 15.1221C68.2736 15.3181 68.0309 15.5888 67.8536 15.9341C67.6762 16.2795 67.5876 16.6761 67.5876 17.1241C67.5876 17.5721 67.6762 17.9688 67.8536 18.3141C68.0309 18.6595 68.2736 18.9301 68.5816 19.1261C68.8989 19.3221 69.2582 19.4201 69.6596 19.4201C70.0982 19.4201 70.4809 19.3035 70.8076 19.0701C71.1342 18.8368 71.3676 18.5241 71.5076 18.1321L73.1176 18.8601C72.9682 19.2895 72.7256 19.6768 72.3896 20.0221C72.0536 20.3581 71.6522 20.6241 71.1856 20.8201C70.7189 21.0068 70.2102 21.1001 69.6596 21.1001ZM74.5092 20.9321V10.3341H76.3432V14.8141L76.0912 14.5481C76.2685 14.0908 76.5578 13.7455 76.9592 13.5121C77.3698 13.2695 77.8458 13.1481 78.3872 13.1481C78.9472 13.1481 79.4418 13.2695 79.8712 13.5121C80.3098 13.7548 80.6505 14.0955 80.8932 14.5341C81.1358 14.9635 81.2572 15.4628 81.2572 16.0321V20.9321H79.4232V16.4661C79.4232 16.1301 79.3578 15.8408 79.2272 15.5981C79.0965 15.3555 78.9145 15.1688 78.6812 15.0381C78.4572 14.8981 78.1912 14.8281 77.8832 14.8281C77.5845 14.8281 77.3185 14.8981 77.0852 15.0381C76.8518 15.1688 76.6698 15.3555 76.5392 15.5981C76.4085 15.8408 76.3432 16.1301 76.3432 16.4661V20.9321H74.5092ZM86.532 21.1001C85.7853 21.1001 85.104 20.9275 84.488 20.5821C83.8813 20.2368 83.396 19.7655 83.032 19.1681C82.6773 18.5708 82.5 17.8895 82.5 17.1241C82.5 16.3588 82.6773 15.6775 83.032 15.0801C83.396 14.4828 83.8813 14.0115 84.488 13.6661C85.0946 13.3208 85.776 13.1481 86.532 13.1481C87.2786 13.1481 87.9553 13.3208 88.562 13.6661C89.1686 14.0115 89.6493 14.4828 90.004 15.0801C90.368 15.6681 90.55 16.3495 90.55 17.1241C90.55 17.8895 90.368 18.5708 90.004 19.1681C89.64 19.7655 89.1546 20.2368 88.548 20.5821C87.9413 20.9275 87.2693 21.1001 86.532 21.1001ZM86.532 19.4201C86.9426 19.4201 87.302 19.3221 87.61 19.1261C87.9273 18.9301 88.1746 18.6595 88.352 18.3141C88.5386 17.9595 88.632 17.5628 88.632 17.1241C88.632 16.6761 88.5386 16.2841 88.352 15.9481C88.1746 15.6028 87.9273 15.3321 87.61 15.1361C87.302 14.9308 86.9426 14.8281 86.532 14.8281C86.112 14.8281 85.7433 14.9308 85.426 15.1361C85.1086 15.3321 84.8566 15.6028 84.67 15.9481C84.4926 16.2841 84.404 16.6761 84.404 17.1241C84.404 17.5628 84.4926 17.9595 84.67 18.3141C84.8566 18.6595 85.1086 18.9301 85.426 19.1261C85.7433 19.3221 86.112 19.4201 86.532 19.4201ZM95.6648 21.1001C94.9181 21.1001 94.2368 20.9275 93.6208 20.5821C93.0141 20.2368 92.5288 19.7655 92.1648 19.1681C91.8101 18.5708 91.6328 17.8895 91.6328 17.1241C91.6328 16.3588 91.8101 15.6775 92.1648 15.0801C92.5288 14.4828 93.0141 14.0115 93.6208 13.6661C94.2275 13.3208 94.9088 13.1481 95.6648 13.1481C96.4115 13.1481 97.0881 13.3208 97.6948 13.6661C98.3015 14.0115 98.7821 14.4828 99.1368 15.0801C99.5008 15.6681 99.6828 16.3495 99.6828 17.1241C99.6828 17.8895 99.5008 18.5708 99.1368 19.1681C98.7728 19.7655 98.2875 20.2368 97.6808 20.5821C97.0741 20.9275 96.4021 21.1001 95.6648 21.1001ZM95.6648 19.4201C96.0755 19.4201 96.4348 19.3221 96.7428 19.1261C97.0601 18.9301 97.3075 18.6595 97.4848 18.3141C97.6715 17.9595 97.7648 17.5628 97.7648 17.1241C97.7648 16.6761 97.6715 16.2841 97.4848 15.9481C97.3075 15.6028 97.0601 15.3321 96.7428 15.1361C96.4348 14.9308 96.0755 14.8281 95.6648 14.8281C95.2448 14.8281 94.8761 14.9308 94.5588 15.1361C94.2415 15.3321 93.9895 15.6028 93.8028 15.9481C93.6255 16.2841 93.5368 16.6761 93.5368 17.1241C93.5368 17.5628 93.6255 17.9595 93.8028 18.3141C93.9895 18.6595 94.2415 18.9301 94.5588 19.1261C94.8761 19.3221 95.2448 19.4201 95.6648 19.4201ZM101.074 20.9321V10.3341H102.908V20.9321H101.074Z" fill="black"/>
</svg>
