<svg width="30" height="32" viewBox="0 0 30 32" fill="none" xmlns="http://www.w3.org/2000/svg">
<path d="M15.6251 24.7083H20.8334L19.3699 23.2449C18.9731 22.848 18.7501 22.3097 18.7501 21.7484V18.4583C18.7501 15.737 17.0109 13.422 14.5834 12.564V12.2083C14.5834 11.0577 13.6507 10.125 12.5001 10.125C11.3495 10.125 10.4167 11.0577 10.4167 12.2083V12.564C7.98926 13.422 6.25008 15.737 6.25008 18.4583V21.7484C6.25008 22.3097 6.02711 22.848 5.63022 23.2449L4.16675 24.7083H9.37508M15.6251 24.7083V25.75C15.6251 27.4759 14.226 28.875 12.5001 28.875C10.7742 28.875 9.37508 27.4759 9.37508 25.75V24.7083M15.6251 24.7083H9.37508" stroke="#3F3F46" stroke-width="1.2" stroke-linecap="round" stroke-linejoin="round"/>
<circle cx="21.5" cy="9.5" r="8.5" fill="#4F46E5"/>
<path d="M18.7243 13H24.2243V11.735H20.6713L22.5963 9.711C23.1169 9.16833 23.4983 8.688 23.7403 8.27C23.9896 7.852 24.1143 7.41933 24.1143 6.972C24.1143 6.51733 24.0006 6.11767 23.7733 5.773C23.5533 5.42833 23.2416 5.16067 22.8383 4.97C22.4423 4.772 21.9803 4.673 21.4523 4.673C21.0123 4.673 20.5943 4.761 20.1983 4.937C19.8096 5.10567 19.4796 5.35133 19.2083 5.674C18.9369 5.98933 18.7573 6.36333 18.6693 6.796L19.9783 7.203C20.0956 6.81433 20.2826 6.521 20.5393 6.323C20.7959 6.11767 21.1003 6.015 21.4523 6.015C21.7896 6.015 22.0646 6.114 22.2773 6.312C22.4973 6.51 22.6073 6.78133 22.6073 7.126C22.6073 7.33133 22.5596 7.533 22.4643 7.731C22.3689 7.929 22.2003 8.16733 21.9583 8.446C21.7163 8.72467 21.3789 9.09133 20.9463 9.546L18.7243 11.878V13Z" fill="white"/>
</svg>
