<svg width="25" height="25" viewBox="0 0 25 25" fill="none" xmlns="http://www.w3.org/2000/svg">
<path d="M16.5 5.5C16.5 4.56812 16.5 4.10218 16.6522 3.73463C16.8552 3.24458 17.2446 2.85523 17.7346 2.65224C18.1022 2.5 18.5681 2.5 19.5 2.5C20.4319 2.5 20.8978 2.5 21.2654 2.65224C21.7554 2.85523 22.1448 3.24458 22.3478 3.73463C22.5 4.10218 22.5 4.56812 22.5 5.5V9.5C22.5 10.4319 22.5 10.8978 22.3478 11.2654C22.1448 11.7554 21.7554 12.1448 21.2654 12.3478C20.8978 12.5 20.4319 12.5 19.5 12.5C18.5681 12.5 18.1022 12.5 17.7346 12.3478C17.2446 12.1448 16.8552 11.7554 16.6522 11.2654C16.5 10.8978 16.5 10.4319 16.5 9.5V5.5Z" stroke="white" stroke-width="1.5"/>
<path d="M16.5 19.5C16.5 18.5681 16.5 18.1022 16.6522 17.7346C16.8552 17.2446 17.2446 16.8552 17.7346 16.6522C18.1022 16.5 18.5681 16.5 19.5 16.5C20.4319 16.5 20.8978 16.5 21.2654 16.6522C21.7554 16.8552 22.1448 17.2446 22.3478 17.7346C22.5 18.1022 22.5 18.5681 22.5 19.5C22.5 20.4319 22.5 20.8978 22.3478 21.2654C22.1448 21.7554 21.7554 22.1448 21.2654 22.3478C20.8978 22.5 20.4319 22.5 19.5 22.5C18.5681 22.5 18.1022 22.5 17.7346 22.3478C17.2446 22.1448 16.8552 21.7554 16.6522 21.2654C16.5 20.8978 16.5 20.4319 16.5 19.5Z" stroke="white" stroke-width="1.5"/>
<path d="M2.5 16.5C2.5 14.6144 2.5 13.6716 3.08579 13.0858C3.67157 12.5 4.61438 12.5 6.5 12.5H8.5C10.3856 12.5 11.3284 12.5 11.9142 13.0858C12.5 13.6716 12.5 14.6144 12.5 16.5V18.5C12.5 20.3856 12.5 21.3284 11.9142 21.9142C11.3284 22.5 10.3856 22.5 8.5 22.5H6.5C4.61438 22.5 3.67157 22.5 3.08579 21.9142C2.5 21.3284 2.5 20.3856 2.5 18.5V16.5Z" stroke="white" stroke-width="1.5"/>
<path d="M2.5 5.5C2.5 4.56812 2.5 4.10218 2.65224 3.73463C2.85523 3.24458 3.24458 2.85523 3.73463 2.65224C4.10218 2.5 4.56812 2.5 5.5 2.5H9.5C10.4319 2.5 10.8978 2.5 11.2654 2.65224C11.7554 2.85523 12.1448 3.24458 12.3478 3.73463C12.5 4.10218 12.5 4.56812 12.5 5.5C12.5 6.43188 12.5 6.89782 12.3478 7.26537C12.1448 7.75542 11.7554 8.14477 11.2654 8.34776C10.8978 8.5 10.4319 8.5 9.5 8.5H5.5C4.56812 8.5 4.10218 8.5 3.73463 8.34776C3.24458 8.14477 2.85523 7.75542 2.65224 7.26537C2.5 6.89782 2.5 6.43188 2.5 5.5Z" stroke="white" stroke-width="1.5"/>
</svg>
