<svg width="40" height="40" viewBox="0 0 40 40" fill="none" xmlns="http://www.w3.org/2000/svg">
<circle cx="20" cy="20" r="20" fill="#D9D9D9"/>
<path d="M15.4813 22.9013C14.3023 23.6033 11.2111 25.0368 13.0939 26.8305C14.0136 27.7067 15.0379 28.3333 16.3257 28.3333H23.6743C24.9621 28.3333 25.9864 27.7067 26.9061 26.8305C28.7888 25.0368 25.6977 23.6033 24.5187 22.9013C21.754 21.2551 18.246 21.2551 15.4813 22.9013Z" stroke="#141B34" stroke-width="1.5" stroke-linecap="round" stroke-linejoin="round"/>
<path d="M23.75 15.4167C23.75 17.4877 22.0711 19.1667 20 19.1667C17.9289 19.1667 16.25 17.4877 16.25 15.4167C16.25 13.3456 17.9289 11.6667 20 11.6667C22.0711 11.6667 23.75 13.3456 23.75 15.4167Z" stroke="#141B34" stroke-width="1.5"/>
</svg>
