<svg width="24" height="25" viewBox="0 0 24 25" fill="none" xmlns="http://www.w3.org/2000/svg">
<path d="M3.5 9.5V14.5C3.5 18.2712 3.5 20.1569 4.67157 21.3284C5.84315 22.5 7.72876 22.5 11.5 22.5H12.5C16.2712 22.5 18.1569 22.5 19.3284 21.3284C20.5 20.1569 20.5 18.2712 20.5 14.5V10.5C20.5 6.72876 20.5 4.84315 19.3284 3.67157C18.1569 2.5 16.2712 2.5 12.5 2.5H12" stroke="#1B1C1E" stroke-width="1.5" stroke-linecap="round" stroke-linejoin="round"/>
<path d="M13.5 17.5H17.5" stroke="#1B1C1E" stroke-width="1.5" stroke-linecap="round" stroke-linejoin="round"/>
<path d="M13.5 7.5H17.5" stroke="#1B1C1E" stroke-width="1.5" stroke-linecap="round" stroke-linejoin="round"/>
<path d="M13.5 12.5H17.5" stroke="#1B1C1E" stroke-width="1.5" stroke-linecap="round" stroke-linejoin="round"/>
<path d="M6.5 17C6.5 17 7.46758 17.2672 8 18.5C8 18.5 9 15.5 11 14.5" stroke="#1B1C1E" stroke-width="1.5" stroke-linecap="round" stroke-linejoin="round"/>
<path d="M10 5.5H3.5M10 5.5C10 4.65973 7.67332 3.08984 7.08333 2.5M10 5.5C10 6.34027 7.67331 7.91016 7.08333 8.5" stroke="#1B1C1E" stroke-width="1.5" stroke-linecap="round" stroke-linejoin="round"/>
</svg>
